<svg width="327" height="79" viewBox="0 0 327 79" fill="none" xmlns="http://www.w3.org/2000/svg">
<rect width="327" height="68" rx="16" fill="#E6F8EA"/>
<mask id="mask0_176_384" style="mask-type:alpha" maskUnits="userSpaceOnUse" x="4" y="4" width="75" height="75">
<path d="M35.875 21.5C34.84 21.5 34 20.66 34 19.625C34 17.9013 33.5013 17.4025 32.6738 16.5762C31.6512 15.5525 30.25 14.1513 30.25 10.875C30.25 9.84 31.09 9 32.125 9C33.16 9 34 9.84 34 10.875C34 12.5987 34.4988 13.0975 35.3263 13.9238C36.3488 14.9475 37.75 16.3487 37.75 19.625C37.75 20.66 36.91 21.5 35.875 21.5Z" fill="black"/>
<path d="M45.875 22.75C44.84 22.75 44 21.91 44 20.875C44 19.7762 43.795 19.5712 43.2987 19.0762C42.5825 18.3587 41.5 17.2763 41.5 14.625C41.5 13.59 42.34 12.75 43.375 12.75C44.41 12.75 45.25 13.59 45.25 14.625C45.25 15.7238 45.455 15.9288 45.9513 16.4238C46.6675 17.1413 47.75 18.2237 47.75 20.875C47.75 21.91 46.91 22.75 45.875 22.75Z" fill="black"/>
<path d="M62.275 45.4125L54.6712 69.4825C54.2162 70.8525 53.2 71.9662 51.8637 72.5137C49.1487 73.6237 43.91 75.25 36.5 75.25C29.09 75.25 23.8512 73.6237 21.1362 72.5137C19.8 71.9662 18.7837 70.8525 18.3287 69.4812L15.5875 60C19.65 61.3625 25.9375 62.75 34.625 62.75C35.6625 62.75 36.5 61.9125 36.5 60.875C36.5 59.8375 35.6625 59 34.625 59C23.9875 59 17.225 56.775 14.05 55.3875L10.725 45.4125C10.725 45.4125 20.25 51.5 36.5 51.5C52.75 51.5 62.275 45.4125 62.275 45.4125V45.4125Z" fill="black"/>
<path d="M22.0125 42.4C21.875 42.8125 21.75 43.2875 21.65 43.7875C20.3325 44.3125 18.9663 44.9013 17.8375 45.9125C13.525 44.3625 11.85 43.1625 10.3738 42.2375C10.8625 39.9125 12.9375 37.5375 16.4125 35.7H16.425L22.0125 42.4Z" fill="black"/>
<path d="M45.25 42.1875C43.3375 41.875 41.275 41.65 39.0875 41.5625C37.5375 39.6625 35.45 38.1788 33.4625 37.3538L31.0837 31.7813C32.8262 31.6425 34.7012 31.5 36.5 31.5C39.925 31.5 43.1875 31.8 46.175 32.325C45.225 35.075 45.25 36.5 45.25 42.1875Z" fill="black"/>
<path d="M31.6075 39.37L20.8625 14.215C20.2812 12.8538 18.6425 12.3338 17.3987 13.1163L8.88248 18.4713C7.63998 19.2538 7.37123 20.9725 8.31748 22.1038L24.9 41.9475C24.9 41.9475 24 43.7038 24 45.25C24 46.38 24.0887 46.9088 24.3 47.8075C27.6725 48.4838 32.2687 49 36.5 49H40.25C39.2475 44.4113 35.3825 40.36 31.6075 39.37V39.37Z" fill="black"/>
<path d="M75.25 37.75V41.5C75.25 43.375 75.0375 45.025 74.675 46.5H69.625C68.5875 46.5 67.75 47.3375 67.75 48.375C67.75 49.4125 68.5875 50.25 69.625 50.25H73.3625C71.525 54.2362 69 56.6125 69 59C69 62.75 70.25 64 70.25 64H61.5V55.65L65.12 46.0375C65.2087 45.78 65.25 45.5137 65.25 45.25C65.25 43.8888 64.1512 42.75 62.745 42.75C62.2837 42.75 61.82 42.875 61.4075 43.1375C61.32 43.2 56.0875 46.3 47.75 47.925V40.7C48.9237 39.9375 50.875 39 53.375 39C54.4125 39 55.25 38.1625 55.25 37.125C55.25 36.0875 54.4125 35.25 53.375 35.25C51.1875 35.25 49.3125 35.7625 47.8263 36.4C48.2513 31.8625 50.9137 27.9625 54.6875 25.8125C55.45 26.2 58.5775 27.9738 60.4525 31.7125C60.7775 32.375 61.4387 32.75 62.1275 32.75C62.4137 32.75 62.7012 32.6875 62.965 32.55C63.89 32.0875 64.2637 30.9625 63.8025 30.0375C62.4525 27.3375 60.6125 25.4625 59.0625 24.225C59.85 24.0763 60.675 24 61.5 24C66.625 24 71.0875 26.8 73.4512 30.9513C72.5137 32.4875 70.985 34.3512 68.7862 35.4512C67.8612 35.9137 67.4875 37.0387 67.9487 37.9637C68.2737 38.6262 68.9362 39.0012 69.6237 39.0012C69.9112 39.0012 70.2 38.9387 70.4612 38.8012C72.3625 37.8512 73.865 36.5137 75.015 35.1637C75.1625 36 75.25 36.8625 75.25 37.75V37.75Z" fill="black"/>
</mask>
<g mask="url(#mask0_176_384)">
<rect width="327" height="68" rx="16" fill="black"/>
</g>
<path d="M94.18 19.06C93.6533 19.06 93.1667 18.9733 92.72 18.8C92.2733 18.62 91.8867 18.37 91.56 18.05C91.2333 17.73 90.9767 17.3533 90.79 16.92C90.61 16.4867 90.52 16.0133 90.52 15.5C90.52 14.9867 90.61 14.5133 90.79 14.08C90.9767 13.6467 91.2333 13.27 91.56 12.95C91.8933 12.63 92.2833 12.3833 92.73 12.21C93.1767 12.03 93.6633 11.94 94.19 11.94C94.6967 11.94 95.1733 12.0267 95.62 12.2C96.0667 12.3667 96.4433 12.62 96.75 12.96L96.28 13.43C95.9933 13.1367 95.6767 12.9267 95.33 12.8C94.9833 12.6667 94.61 12.6 94.21 12.6C93.79 12.6 93.4 12.6733 93.04 12.82C92.68 12.96 92.3667 13.1633 92.1 13.43C91.8333 13.69 91.6233 13.9967 91.47 14.35C91.3233 14.6967 91.25 15.08 91.25 15.5C91.25 15.92 91.3233 16.3067 91.47 16.66C91.6233 17.0067 91.8333 17.3133 92.1 17.58C92.3667 17.84 92.68 18.0433 93.04 18.19C93.4 18.33 93.79 18.4 94.21 18.4C94.61 18.4 94.9833 18.3333 95.33 18.2C95.6767 18.0667 95.9933 17.8533 96.28 17.56L96.75 18.03C96.4433 18.37 96.0667 18.6267 95.62 18.8C95.1733 18.9733 94.6933 19.06 94.18 19.06ZM100.083 19.05C99.5765 19.05 99.1198 18.9367 98.7131 18.71C98.3131 18.4767 97.9965 18.16 97.7631 17.76C97.5298 17.3533 97.4131 16.89 97.4131 16.37C97.4131 15.8433 97.5298 15.38 97.7631 14.98C97.9965 14.58 98.3131 14.2667 98.7131 14.04C99.1131 13.8133 99.5698 13.7 100.083 13.7C100.603 13.7 101.063 13.8133 101.463 14.04C101.87 14.2667 102.186 14.58 102.413 14.98C102.646 15.38 102.763 15.8433 102.763 16.37C102.763 16.89 102.646 17.3533 102.413 17.76C102.186 18.16 101.87 18.4767 101.463 18.71C101.056 18.9367 100.596 19.05 100.083 19.05ZM100.083 18.42C100.463 18.42 100.8 18.3367 101.093 18.17C101.386 17.9967 101.616 17.7567 101.783 17.45C101.956 17.1367 102.043 16.7767 102.043 16.37C102.043 15.9567 101.956 15.5967 101.783 15.29C101.616 14.9833 101.386 14.7467 101.093 14.58C100.8 14.4067 100.466 14.32 100.093 14.32C99.7198 14.32 99.3865 14.4067 99.0931 14.58C98.7998 14.7467 98.5665 14.9833 98.3931 15.29C98.2198 15.5967 98.1331 15.9567 98.1331 16.37C98.1331 16.7767 98.2198 17.1367 98.3931 17.45C98.5665 17.7567 98.7998 17.9967 99.0931 18.17C99.3865 18.3367 99.7165 18.42 100.083 18.42ZM106.353 19.05C105.846 19.05 105.389 18.9367 104.983 18.71C104.583 18.4767 104.266 18.16 104.033 17.76C103.799 17.3533 103.683 16.89 103.683 16.37C103.683 15.8433 103.799 15.38 104.033 14.98C104.266 14.58 104.583 14.2667 104.983 14.04C105.383 13.8133 105.839 13.7 106.353 13.7C106.873 13.7 107.333 13.8133 107.733 14.04C108.139 14.2667 108.456 14.58 108.683 14.98C108.916 15.38 109.033 15.8433 109.033 16.37C109.033 16.89 108.916 17.3533 108.683 17.76C108.456 18.16 108.139 18.4767 107.733 18.71C107.326 18.9367 106.866 19.05 106.353 19.05ZM106.353 18.42C106.733 18.42 107.069 18.3367 107.363 18.17C107.656 17.9967 107.886 17.7567 108.053 17.45C108.226 17.1367 108.313 16.7767 108.313 16.37C108.313 15.9567 108.226 15.5967 108.053 15.29C107.886 14.9833 107.656 14.7467 107.363 14.58C107.069 14.4067 106.736 14.32 106.363 14.32C105.989 14.32 105.656 14.4067 105.363 14.58C105.069 14.7467 104.836 14.9833 104.663 15.29C104.489 15.5967 104.403 15.9567 104.403 16.37C104.403 16.7767 104.489 17.1367 104.663 17.45C104.836 17.7567 105.069 17.9967 105.363 18.17C105.656 18.3367 105.986 18.42 106.353 18.42ZM111.042 17.64L111.062 16.73L114.332 13.75H115.202L112.892 15.96L112.492 16.3L111.042 17.64ZM110.482 19V11.58H111.192V19H110.482ZM114.552 19L112.362 16.27L112.822 15.72L115.422 19H114.552ZM120.765 19.05C120.272 19.05 119.892 18.9167 119.625 18.65C119.359 18.3833 119.225 18.0067 119.225 17.52V12.59H119.935V17.48C119.935 17.7867 120.012 18.0233 120.165 18.19C120.325 18.3567 120.552 18.44 120.845 18.44C121.159 18.44 121.419 18.35 121.625 18.17L121.875 18.68C121.735 18.8067 121.565 18.9 121.365 18.96C121.172 19.02 120.972 19.05 120.765 19.05ZM118.285 14.34V13.75H121.535V14.34H118.285ZM125.848 13.7C126.274 13.7 126.648 13.7833 126.968 13.95C127.294 14.11 127.548 14.3567 127.728 14.69C127.914 15.0233 128.008 15.4433 128.008 15.95V19H127.298V16.02C127.298 15.4667 127.158 15.05 126.878 14.77C126.604 14.4833 126.218 14.34 125.718 14.34C125.344 14.34 125.018 14.4167 124.738 14.57C124.464 14.7167 124.251 14.9333 124.098 15.22C123.951 15.5 123.878 15.84 123.878 16.24V19H123.168V11.58H123.878V15.19L123.738 14.92C123.904 14.54 124.171 14.2433 124.538 14.03C124.904 13.81 125.341 13.7 125.848 13.7ZM132.156 19.05C131.609 19.05 131.129 18.9367 130.716 18.71C130.302 18.4767 129.979 18.16 129.746 17.76C129.512 17.3533 129.396 16.89 129.396 16.37C129.396 15.85 129.506 15.39 129.726 14.99C129.952 14.59 130.259 14.2767 130.646 14.05C131.039 13.8167 131.479 13.7 131.966 13.7C132.459 13.7 132.896 13.8133 133.276 14.04C133.662 14.26 133.966 14.5733 134.186 14.98C134.406 15.38 134.516 15.8433 134.516 16.37C134.516 16.4033 134.512 16.44 134.506 16.48C134.506 16.5133 134.506 16.55 134.506 16.59H129.936V16.06H134.126L133.846 16.27C133.846 15.89 133.762 15.5533 133.596 15.26C133.436 14.96 133.216 14.7267 132.936 14.56C132.656 14.3933 132.332 14.31 131.966 14.31C131.606 14.31 131.282 14.3933 130.996 14.56C130.709 14.7267 130.486 14.96 130.326 15.26C130.166 15.56 130.086 15.9033 130.086 16.29V16.4C130.086 16.8 130.172 17.1533 130.346 17.46C130.526 17.76 130.772 17.9967 131.086 18.17C131.406 18.3367 131.769 18.42 132.176 18.42C132.496 18.42 132.792 18.3633 133.066 18.25C133.346 18.1367 133.586 17.9633 133.786 17.73L134.186 18.19C133.952 18.47 133.659 18.6833 133.306 18.83C132.959 18.9767 132.576 19.05 132.156 19.05ZM138.578 19V13.75H139.258V15.18L139.188 14.93C139.335 14.53 139.581 14.2267 139.928 14.02C140.275 13.8067 140.705 13.7 141.218 13.7V14.39C141.191 14.39 141.165 14.39 141.138 14.39C141.111 14.3833 141.085 14.38 141.058 14.38C140.505 14.38 140.071 14.55 139.758 14.89C139.445 15.2233 139.288 15.7 139.288 16.32V19H138.578ZM144.695 19.05C144.148 19.05 143.668 18.9367 143.255 18.71C142.841 18.4767 142.518 18.16 142.285 17.76C142.051 17.3533 141.935 16.89 141.935 16.37C141.935 15.85 142.045 15.39 142.265 14.99C142.491 14.59 142.798 14.2767 143.185 14.05C143.578 13.8167 144.018 13.7 144.505 13.7C144.998 13.7 145.435 13.8133 145.815 14.04C146.201 14.26 146.505 14.5733 146.725 14.98C146.945 15.38 147.055 15.8433 147.055 16.37C147.055 16.4033 147.051 16.44 147.045 16.48C147.045 16.5133 147.045 16.55 147.045 16.59H142.475V16.06H146.665L146.385 16.27C146.385 15.89 146.301 15.5533 146.135 15.26C145.975 14.96 145.755 14.7267 145.475 14.56C145.195 14.3933 144.871 14.31 144.505 14.31C144.145 14.31 143.821 14.3933 143.535 14.56C143.248 14.7267 143.025 14.96 142.865 15.26C142.705 15.56 142.625 15.9033 142.625 16.29V16.4C142.625 16.8 142.711 17.1533 142.885 17.46C143.065 17.76 143.311 17.9967 143.625 18.17C143.945 18.3367 144.308 18.42 144.715 18.42C145.035 18.42 145.331 18.3633 145.605 18.25C145.885 18.1367 146.125 17.9633 146.325 17.73L146.725 18.19C146.491 18.47 146.198 18.6833 145.845 18.83C145.498 18.9767 145.115 19.05 144.695 19.05ZM150.68 19.05C150.16 19.05 149.693 18.9367 149.28 18.71C148.873 18.4767 148.553 18.16 148.32 17.76C148.086 17.3533 147.97 16.89 147.97 16.37C147.97 15.8433 148.086 15.38 148.32 14.98C148.553 14.58 148.873 14.2667 149.28 14.04C149.693 13.8133 150.16 13.7 150.68 13.7C151.126 13.7 151.53 13.7867 151.89 13.96C152.25 14.1333 152.533 14.3933 152.74 14.74L152.21 15.1C152.03 14.8333 151.806 14.6367 151.54 14.51C151.273 14.3833 150.983 14.32 150.67 14.32C150.296 14.32 149.96 14.4067 149.66 14.58C149.36 14.7467 149.123 14.9833 148.95 15.29C148.776 15.5967 148.69 15.9567 148.69 16.37C148.69 16.7833 148.776 17.1433 148.95 17.45C149.123 17.7567 149.36 17.9967 149.66 18.17C149.96 18.3367 150.296 18.42 150.67 18.42C150.983 18.42 151.273 18.3567 151.54 18.23C151.806 18.1033 152.03 17.91 152.21 17.65L152.74 18.01C152.533 18.35 152.25 18.61 151.89 18.79C151.53 18.9633 151.126 19.05 150.68 19.05ZM154.056 19V13.75H154.766V19H154.056ZM154.416 12.59C154.27 12.59 154.146 12.54 154.046 12.44C153.946 12.34 153.896 12.22 153.896 12.08C153.896 11.94 153.946 11.8233 154.046 11.73C154.146 11.63 154.27 11.58 154.416 11.58C154.563 11.58 154.686 11.6267 154.786 11.72C154.886 11.8133 154.936 11.93 154.936 12.07C154.936 12.2167 154.886 12.34 154.786 12.44C154.693 12.54 154.57 12.59 154.416 12.59ZM159.452 19.05C158.999 19.05 158.589 18.9467 158.222 18.74C157.855 18.5267 157.562 18.2233 157.342 17.83C157.129 17.43 157.022 16.9433 157.022 16.37C157.022 15.7967 157.129 15.3133 157.342 14.92C157.555 14.52 157.845 14.2167 158.212 14.01C158.579 13.8033 158.992 13.7 159.452 13.7C159.952 13.7 160.399 13.8133 160.792 14.04C161.192 14.26 161.505 14.5733 161.732 14.98C161.959 15.38 162.072 15.8433 162.072 16.37C162.072 16.9033 161.959 17.37 161.732 17.77C161.505 18.17 161.192 18.4833 160.792 18.71C160.399 18.9367 159.952 19.05 159.452 19.05ZM156.742 20.94V13.75H157.422V15.33L157.352 16.38L157.452 17.44V20.94H156.742ZM159.402 18.42C159.775 18.42 160.109 18.3367 160.402 18.17C160.695 17.9967 160.929 17.7567 161.102 17.45C161.275 17.1367 161.362 16.7767 161.362 16.37C161.362 15.9633 161.275 15.6067 161.102 15.3C160.929 14.9933 160.695 14.7533 160.402 14.58C160.109 14.4067 159.775 14.32 159.402 14.32C159.029 14.32 158.692 14.4067 158.392 14.58C158.099 14.7533 157.865 14.9933 157.692 15.3C157.525 15.6067 157.442 15.9633 157.442 16.37C157.442 16.7767 157.525 17.1367 157.692 17.45C157.865 17.7567 158.099 17.9967 158.392 18.17C158.692 18.3367 159.029 18.42 159.402 18.42ZM165.749 19.05C165.203 19.05 164.723 18.9367 164.309 18.71C163.896 18.4767 163.573 18.16 163.339 17.76C163.106 17.3533 162.989 16.89 162.989 16.37C162.989 15.85 163.099 15.39 163.319 14.99C163.546 14.59 163.853 14.2767 164.239 14.05C164.633 13.8167 165.073 13.7 165.559 13.7C166.053 13.7 166.489 13.8133 166.869 14.04C167.256 14.26 167.559 14.5733 167.779 14.98C167.999 15.38 168.109 15.8433 168.109 16.37C168.109 16.4033 168.106 16.44 168.099 16.48C168.099 16.5133 168.099 16.55 168.099 16.59H163.529V16.06H167.719L167.439 16.27C167.439 15.89 167.356 15.5533 167.189 15.26C167.029 14.96 166.809 14.7267 166.529 14.56C166.249 14.3933 165.926 14.31 165.559 14.31C165.199 14.31 164.876 14.3933 164.589 14.56C164.303 14.7267 164.079 14.96 163.919 15.26C163.759 15.56 163.679 15.9033 163.679 16.29V16.4C163.679 16.8 163.766 17.1533 163.939 17.46C164.119 17.76 164.366 17.9967 164.679 18.17C164.999 18.3367 165.363 18.42 165.769 18.42C166.089 18.42 166.386 18.3633 166.659 18.25C166.939 18.1367 167.179 17.9633 167.379 17.73L167.779 18.19C167.546 18.47 167.253 18.6833 166.899 18.83C166.553 18.9767 166.169 19.05 165.749 19.05ZM173.242 19L171.262 13.75H171.942L173.742 18.62H173.432L175.282 13.75H175.892L177.722 18.62H177.412L179.242 13.75H179.892L177.902 19H177.232L175.472 14.42H175.682L173.912 19H173.242ZM180.961 19V13.75H181.671V19H180.961ZM181.321 12.59C181.174 12.59 181.051 12.54 180.951 12.44C180.851 12.34 180.801 12.22 180.801 12.08C180.801 11.94 180.851 11.8233 180.951 11.73C181.051 11.63 181.174 11.58 181.321 11.58C181.467 11.58 181.591 11.6267 181.691 11.72C181.791 11.8133 181.841 11.93 181.841 12.07C181.841 12.2167 181.791 12.34 181.691 12.44C181.597 12.54 181.474 12.59 181.321 12.59ZM185.306 19.05C184.813 19.05 184.433 18.9167 184.166 18.65C183.9 18.3833 183.766 18.0067 183.766 17.52V12.59H184.476V17.48C184.476 17.7867 184.553 18.0233 184.706 18.19C184.866 18.3567 185.093 18.44 185.386 18.44C185.7 18.44 185.96 18.35 186.166 18.17L186.416 18.68C186.276 18.8067 186.106 18.9 185.906 18.96C185.713 19.02 185.513 19.05 185.306 19.05ZM182.826 14.34V13.75H186.076V14.34H182.826ZM190.389 13.7C190.815 13.7 191.189 13.7833 191.509 13.95C191.835 14.11 192.089 14.3567 192.269 14.69C192.455 15.0233 192.549 15.4433 192.549 15.95V19H191.839V16.02C191.839 15.4667 191.699 15.05 191.419 14.77C191.145 14.4833 190.759 14.34 190.259 14.34C189.885 14.34 189.559 14.4167 189.279 14.57C189.005 14.7167 188.792 14.9333 188.639 15.22C188.492 15.5 188.419 15.84 188.419 16.24V19H187.709V11.58H188.419V15.19L188.279 14.92C188.445 14.54 188.712 14.2433 189.079 14.03C189.445 13.81 189.882 13.7 190.389 13.7ZM199.314 19.05C198.767 19.05 198.287 18.9367 197.874 18.71C197.46 18.4767 197.137 18.16 196.904 17.76C196.67 17.3533 196.554 16.89 196.554 16.37C196.554 15.85 196.664 15.39 196.884 14.99C197.11 14.59 197.417 14.2767 197.804 14.05C198.197 13.8167 198.637 13.7 199.124 13.7C199.617 13.7 200.054 13.8133 200.434 14.04C200.82 14.26 201.124 14.5733 201.344 14.98C201.564 15.38 201.674 15.8433 201.674 16.37C201.674 16.4033 201.67 16.44 201.664 16.48C201.664 16.5133 201.664 16.55 201.664 16.59H197.094V16.06H201.284L201.004 16.27C201.004 15.89 200.92 15.5533 200.754 15.26C200.594 14.96 200.374 14.7267 200.094 14.56C199.814 14.3933 199.49 14.31 199.124 14.31C198.764 14.31 198.44 14.3933 198.154 14.56C197.867 14.7267 197.644 14.96 197.484 15.26C197.324 15.56 197.244 15.9033 197.244 16.29V16.4C197.244 16.8 197.33 17.1533 197.504 17.46C197.684 17.76 197.93 17.9967 198.244 18.17C198.564 18.3367 198.927 18.42 199.334 18.42C199.654 18.42 199.95 18.3633 200.224 18.25C200.504 18.1367 200.744 17.9633 200.944 17.73L201.344 18.19C201.11 18.47 200.817 18.6833 200.464 18.83C200.117 18.9767 199.734 19.05 199.314 19.05ZM206.262 19V17.84L206.232 17.65V15.71C206.232 15.2633 206.106 14.92 205.852 14.68C205.606 14.44 205.236 14.32 204.742 14.32C204.402 14.32 204.079 14.3767 203.772 14.49C203.466 14.6033 203.206 14.7533 202.992 14.94L202.672 14.41C202.939 14.1833 203.259 14.01 203.632 13.89C204.006 13.7633 204.399 13.7 204.812 13.7C205.492 13.7 206.016 13.87 206.382 14.21C206.756 14.5433 206.942 15.0533 206.942 15.74V19H206.262ZM204.452 19.05C204.059 19.05 203.716 18.9867 203.422 18.86C203.136 18.7267 202.916 18.5467 202.762 18.32C202.609 18.0867 202.532 17.82 202.532 17.52C202.532 17.2467 202.596 17 202.722 16.78C202.856 16.5533 203.069 16.3733 203.362 16.24C203.662 16.1 204.062 16.03 204.562 16.03H206.372V16.56H204.582C204.076 16.56 203.722 16.65 203.522 16.83C203.329 17.01 203.232 17.2333 203.232 17.5C203.232 17.8 203.349 18.04 203.582 18.22C203.816 18.4 204.142 18.49 204.562 18.49C204.962 18.49 205.306 18.4 205.592 18.22C205.886 18.0333 206.099 17.7667 206.232 17.42L206.392 17.91C206.259 18.2567 206.026 18.5333 205.692 18.74C205.366 18.9467 204.952 19.05 204.452 19.05ZM210.281 19.05C209.848 19.05 209.438 18.99 209.051 18.87C208.664 18.7433 208.361 18.5867 208.141 18.4L208.461 17.84C208.674 18 208.948 18.14 209.281 18.26C209.614 18.3733 209.964 18.43 210.331 18.43C210.831 18.43 211.191 18.3533 211.411 18.2C211.631 18.04 211.741 17.83 211.741 17.57C211.741 17.3767 211.678 17.2267 211.551 17.12C211.431 17.0067 211.271 16.9233 211.071 16.87C210.871 16.81 210.648 16.76 210.401 16.72C210.154 16.68 209.908 16.6333 209.661 16.58C209.421 16.5267 209.201 16.45 209.001 16.35C208.801 16.2433 208.638 16.1 208.511 15.92C208.391 15.74 208.331 15.5 208.331 15.2C208.331 14.9133 208.411 14.6567 208.571 14.43C208.731 14.2033 208.964 14.0267 209.271 13.9C209.584 13.7667 209.964 13.7 210.411 13.7C210.751 13.7 211.091 13.7467 211.431 13.84C211.771 13.9267 212.051 14.0433 212.271 14.19L211.961 14.76C211.728 14.6 211.478 14.4867 211.211 14.42C210.944 14.3467 210.678 14.31 210.411 14.31C209.938 14.31 209.588 14.3933 209.361 14.56C209.141 14.72 209.031 14.9267 209.031 15.18C209.031 15.38 209.091 15.5367 209.211 15.65C209.338 15.7633 209.501 15.8533 209.701 15.92C209.908 15.98 210.131 16.03 210.371 16.07C210.618 16.11 210.861 16.16 211.101 16.22C211.348 16.2733 211.571 16.35 211.771 16.45C211.978 16.5433 212.141 16.68 212.261 16.86C212.388 17.0333 212.451 17.2633 212.451 17.55C212.451 17.8567 212.364 18.1233 212.191 18.35C212.024 18.57 211.778 18.7433 211.451 18.87C211.131 18.99 210.741 19.05 210.281 19.05ZM215.984 19.05C215.437 19.05 214.957 18.9367 214.544 18.71C214.13 18.4767 213.807 18.16 213.574 17.76C213.34 17.3533 213.224 16.89 213.224 16.37C213.224 15.85 213.334 15.39 213.554 14.99C213.78 14.59 214.087 14.2767 214.474 14.05C214.867 13.8167 215.307 13.7 215.794 13.7C216.287 13.7 216.724 13.8133 217.104 14.04C217.49 14.26 217.794 14.5733 218.014 14.98C218.234 15.38 218.344 15.8433 218.344 16.37C218.344 16.4033 218.34 16.44 218.334 16.48C218.334 16.5133 218.334 16.55 218.334 16.59H213.764V16.06H217.954L217.674 16.27C217.674 15.89 217.59 15.5533 217.424 15.26C217.264 14.96 217.044 14.7267 216.764 14.56C216.484 14.3933 216.16 14.31 215.794 14.31C215.434 14.31 215.11 14.3933 214.824 14.56C214.537 14.7267 214.314 14.96 214.154 15.26C213.994 15.56 213.914 15.9033 213.914 16.29V16.4C213.914 16.8 214 17.1533 214.174 17.46C214.354 17.76 214.6 17.9967 214.914 18.17C215.234 18.3367 215.597 18.42 216.004 18.42C216.324 18.42 216.62 18.3633 216.894 18.25C217.174 18.1367 217.414 17.9633 217.614 17.73L218.014 18.19C217.78 18.47 217.487 18.6833 217.134 18.83C216.787 18.9767 216.404 19.05 215.984 19.05ZM219.859 19.05C219.712 19.05 219.585 18.9967 219.479 18.89C219.379 18.7833 219.329 18.6533 219.329 18.5C219.329 18.34 219.379 18.21 219.479 18.11C219.585 18.01 219.712 17.96 219.859 17.96C220.005 17.96 220.129 18.01 220.229 18.11C220.335 18.21 220.389 18.34 220.389 18.5C220.389 18.6533 220.335 18.7833 220.229 18.89C220.129 18.9967 220.005 19.05 219.859 19.05ZM92.51 31L90.22 24H91.9L93.89 30.2H93.05L95.13 24H96.63L98.63 30.2H97.82L99.86 24H101.41L99.12 31H97.38L95.61 25.56H96.07L94.25 31H92.51ZM104.474 31.08C103.861 31.08 103.321 30.96 102.854 30.72C102.394 30.48 102.037 30.1533 101.784 29.74C101.531 29.32 101.404 28.8433 101.404 28.31C101.404 27.77 101.527 27.2933 101.774 26.88C102.027 26.46 102.371 26.1333 102.804 25.9C103.237 25.66 103.727 25.54 104.274 25.54C104.801 25.54 105.274 25.6533 105.694 25.88C106.121 26.1 106.457 26.42 106.704 26.84C106.951 27.2533 107.074 27.75 107.074 28.33C107.074 28.39 107.071 28.46 107.064 28.54C107.057 28.6133 107.051 28.6833 107.044 28.75H102.674V27.84H106.224L105.624 28.11C105.624 27.83 105.567 27.5867 105.454 27.38C105.341 27.1733 105.184 27.0133 104.984 26.9C104.784 26.78 104.551 26.72 104.284 26.72C104.017 26.72 103.781 26.78 103.574 26.9C103.374 27.0133 103.217 27.1767 103.104 27.39C102.991 27.5967 102.934 27.8433 102.934 28.13V28.37C102.934 28.6633 102.997 28.9233 103.124 29.15C103.257 29.37 103.441 29.54 103.674 29.66C103.914 29.7733 104.194 29.83 104.514 29.83C104.801 29.83 105.051 29.7867 105.264 29.7C105.484 29.6133 105.684 29.4833 105.864 29.31L106.694 30.21C106.447 30.49 106.137 30.7067 105.764 30.86C105.391 31.0067 104.961 31.08 104.474 31.08ZM107.862 26.9L108.522 24.5L108.742 25.41C108.455 25.41 108.219 25.3267 108.032 25.16C107.852 24.9867 107.762 24.7533 107.762 24.46C107.762 24.1733 107.855 23.9433 108.042 23.77C108.229 23.59 108.459 23.5 108.732 23.5C109.012 23.5 109.242 23.59 109.422 23.77C109.602 23.9433 109.692 24.1733 109.692 24.46C109.692 24.5467 109.685 24.6333 109.672 24.72C109.665 24.8 109.642 24.8967 109.602 25.01C109.569 25.1233 109.512 25.2733 109.432 25.46L108.852 26.9H107.862ZM110.749 31V23.58H112.309V31H110.749ZM113.757 31V23.58H115.317V31H113.757ZM122.777 31.08C122.324 31.08 121.927 30.98 121.587 30.78C121.247 30.58 120.98 30.2767 120.787 29.87C120.6 29.4567 120.507 28.9367 120.507 28.31C120.507 27.6767 120.597 27.1567 120.777 26.75C120.957 26.3433 121.217 26.04 121.557 25.84C121.897 25.64 122.304 25.54 122.777 25.54C123.284 25.54 123.737 25.6567 124.137 25.89C124.544 26.1167 124.864 26.4367 125.097 26.85C125.337 27.2633 125.457 27.75 125.457 28.31C125.457 28.8767 125.337 29.3667 125.097 29.78C124.864 30.1933 124.544 30.5133 124.137 30.74C123.737 30.9667 123.284 31.08 122.777 31.08ZM119.597 32.94V25.62H121.087V26.72L121.057 28.32L121.157 29.91V32.94H119.597ZM122.507 29.8C122.767 29.8 122.997 29.74 123.197 29.62C123.404 29.5 123.567 29.33 123.687 29.11C123.814 28.8833 123.877 28.6167 123.877 28.31C123.877 27.9967 123.814 27.73 123.687 27.51C123.567 27.29 123.404 27.12 123.197 27C122.997 26.88 122.767 26.82 122.507 26.82C122.247 26.82 122.014 26.88 121.807 27C121.6 27.12 121.437 27.29 121.317 27.51C121.197 27.73 121.137 27.9967 121.137 28.31C121.137 28.6167 121.197 28.8833 121.317 29.11C121.437 29.33 121.6 29.5 121.807 29.62C122.014 29.74 122.247 29.8 122.507 29.8ZM126.501 31V25.62H127.991V27.14L127.781 26.7C127.941 26.32 128.198 26.0333 128.551 25.84C128.905 25.64 129.335 25.54 129.841 25.54V26.98C129.775 26.9733 129.715 26.97 129.661 26.97C129.608 26.9633 129.551 26.96 129.491 26.96C129.065 26.96 128.718 27.0833 128.451 27.33C128.191 27.57 128.061 27.9467 128.061 28.46V31H126.501ZM133.29 31.08C132.716 31.08 132.206 30.96 131.76 30.72C131.32 30.48 130.97 30.1533 130.71 29.74C130.456 29.32 130.33 28.8433 130.33 28.31C130.33 27.77 130.456 27.2933 130.71 26.88C130.97 26.46 131.32 26.1333 131.76 25.9C132.206 25.66 132.716 25.54 133.29 25.54C133.856 25.54 134.363 25.66 134.81 25.9C135.256 26.1333 135.606 26.4567 135.86 26.87C136.113 27.2833 136.24 27.7633 136.24 28.31C136.24 28.8433 136.113 29.32 135.86 29.74C135.606 30.1533 135.256 30.48 134.81 30.72C134.363 30.96 133.856 31.08 133.29 31.08ZM133.29 29.8C133.55 29.8 133.783 29.74 133.99 29.62C134.196 29.5 134.36 29.33 134.48 29.11C134.6 28.8833 134.66 28.6167 134.66 28.31C134.66 27.9967 134.6 27.73 134.48 27.51C134.36 27.29 134.196 27.12 133.99 27C133.783 26.88 133.55 26.82 133.29 26.82C133.03 26.82 132.796 26.88 132.59 27C132.383 27.12 132.216 27.29 132.09 27.51C131.97 27.73 131.91 27.9967 131.91 28.31C131.91 28.6167 131.97 28.8833 132.09 29.11C132.216 29.33 132.383 29.5 132.59 29.62C132.796 29.74 133.03 29.8 133.29 29.8ZM138.596 31L136.336 25.62H137.946L139.826 30.25H139.026L140.976 25.62H142.476L140.206 31H138.596ZM143.113 31V25.62H144.673V31H143.113ZM143.893 24.87C143.606 24.87 143.373 24.7867 143.193 24.62C143.013 24.4533 142.923 24.2467 142.923 24C142.923 23.7533 143.013 23.5467 143.193 23.38C143.373 23.2133 143.606 23.13 143.893 23.13C144.179 23.13 144.413 23.21 144.593 23.37C144.773 23.5233 144.863 23.7233 144.863 23.97C144.863 24.23 144.773 24.4467 144.593 24.62C144.419 24.7867 144.186 24.87 143.893 24.87ZM148.43 31.08C147.924 31.08 147.467 30.9667 147.06 30.74C146.654 30.5067 146.33 30.1833 146.09 29.77C145.857 29.3567 145.74 28.87 145.74 28.31C145.74 27.7433 145.857 27.2533 146.09 26.84C146.33 26.4267 146.654 26.1067 147.06 25.88C147.467 25.6533 147.924 25.54 148.43 25.54C148.884 25.54 149.28 25.64 149.62 25.84C149.96 26.04 150.224 26.3433 150.41 26.75C150.597 27.1567 150.69 27.6767 150.69 28.31C150.69 28.9367 150.6 29.4567 150.42 29.87C150.24 30.2767 149.98 30.58 149.64 30.78C149.307 30.98 148.904 31.08 148.43 31.08ZM148.7 29.8C148.954 29.8 149.184 29.74 149.39 29.62C149.597 29.5 149.76 29.33 149.88 29.11C150.007 28.8833 150.07 28.6167 150.07 28.31C150.07 27.9967 150.007 27.73 149.88 27.51C149.76 27.29 149.597 27.12 149.39 27C149.184 26.88 148.954 26.82 148.7 26.82C148.44 26.82 148.207 26.88 148 27C147.794 27.12 147.627 27.29 147.5 27.51C147.38 27.73 147.32 27.9967 147.32 28.31C147.32 28.6167 147.38 28.8833 147.5 29.11C147.627 29.33 147.794 29.5 148 29.62C148.207 29.74 148.44 29.8 148.7 29.8ZM150.11 31V29.9L150.14 28.3L150.04 26.71V23.58H151.6V31H150.11ZM155.714 31.08C155.101 31.08 154.561 30.96 154.094 30.72C153.634 30.48 153.278 30.1533 153.024 29.74C152.771 29.32 152.644 28.8433 152.644 28.31C152.644 27.77 152.768 27.2933 153.014 26.88C153.268 26.46 153.611 26.1333 154.044 25.9C154.478 25.66 154.968 25.54 155.514 25.54C156.041 25.54 156.514 25.6533 156.934 25.88C157.361 26.1 157.698 26.42 157.944 26.84C158.191 27.2533 158.314 27.75 158.314 28.33C158.314 28.39 158.311 28.46 158.304 28.54C158.298 28.6133 158.291 28.6833 158.284 28.75H153.914V27.84H157.464L156.864 28.11C156.864 27.83 156.808 27.5867 156.694 27.38C156.581 27.1733 156.424 27.0133 156.224 26.9C156.024 26.78 155.791 26.72 155.524 26.72C155.258 26.72 155.021 26.78 154.814 26.9C154.614 27.0133 154.458 27.1767 154.344 27.39C154.231 27.5967 154.174 27.8433 154.174 28.13V28.37C154.174 28.6633 154.238 28.9233 154.364 29.15C154.498 29.37 154.681 29.54 154.914 29.66C155.154 29.7733 155.434 29.83 155.754 29.83C156.041 29.83 156.291 29.7867 156.504 29.7C156.724 29.6133 156.924 29.4833 157.104 29.31L157.934 30.21C157.688 30.49 157.378 30.7067 157.004 30.86C156.631 31.0067 156.201 31.08 155.714 31.08ZM164.385 31.08C163.752 31.08 163.258 30.92 162.905 30.6C162.552 30.2733 162.375 29.79 162.375 29.15V24.43H163.935V29.13C163.935 29.3567 163.995 29.5333 164.115 29.66C164.235 29.78 164.398 29.84 164.605 29.84C164.852 29.84 165.062 29.7733 165.235 29.64L165.655 30.74C165.495 30.8533 165.302 30.94 165.075 31C164.855 31.0533 164.625 31.08 164.385 31.08ZM161.545 26.94V25.74H165.275V26.94H161.545ZM169.801 25.54C170.227 25.54 170.607 25.6267 170.941 25.8C171.281 25.9667 171.547 26.2267 171.741 26.58C171.934 26.9267 172.031 27.3733 172.031 27.92V31H170.471V28.16C170.471 27.7267 170.374 27.4067 170.181 27.2C169.994 26.9933 169.727 26.89 169.381 26.89C169.134 26.89 168.911 26.9433 168.711 27.05C168.517 27.15 168.364 27.3067 168.251 27.52C168.144 27.7333 168.091 28.0067 168.091 28.34V31H166.531V23.58H168.091V27.11L167.741 26.66C167.934 26.3 168.211 26.0233 168.571 25.83C168.931 25.6367 169.341 25.54 169.801 25.54ZM176.154 31.08C175.54 31.08 175 30.96 174.534 30.72C174.074 30.48 173.717 30.1533 173.464 29.74C173.21 29.32 173.084 28.8433 173.084 28.31C173.084 27.77 173.207 27.2933 173.454 26.88C173.707 26.46 174.05 26.1333 174.484 25.9C174.917 25.66 175.407 25.54 175.954 25.54C176.48 25.54 176.954 25.6533 177.374 25.88C177.8 26.1 178.137 26.42 178.384 26.84C178.63 27.2533 178.754 27.75 178.754 28.33C178.754 28.39 178.75 28.46 178.744 28.54C178.737 28.6133 178.73 28.6833 178.724 28.75H174.354V27.84H177.904L177.304 28.11C177.304 27.83 177.247 27.5867 177.134 27.38C177.02 27.1733 176.864 27.0133 176.664 26.9C176.464 26.78 176.23 26.72 175.964 26.72C175.697 26.72 175.46 26.78 175.254 26.9C175.054 27.0133 174.897 27.1767 174.784 27.39C174.67 27.5967 174.614 27.8433 174.614 28.13V28.37C174.614 28.6633 174.677 28.9233 174.804 29.15C174.937 29.37 175.12 29.54 175.354 29.66C175.594 29.7733 175.874 29.83 176.194 29.83C176.48 29.83 176.73 29.7867 176.944 29.7C177.164 29.6133 177.364 29.4833 177.544 29.31L178.374 30.21C178.127 30.49 177.817 30.7067 177.444 30.86C177.07 31.0067 176.64 31.08 176.154 31.08ZM184.824 31.08C184.191 31.08 183.698 30.92 183.344 30.6C182.991 30.2733 182.814 29.79 182.814 29.15V24.43H184.374V29.13C184.374 29.3567 184.434 29.5333 184.554 29.66C184.674 29.78 184.838 29.84 185.044 29.84C185.291 29.84 185.501 29.7733 185.674 29.64L186.094 30.74C185.934 30.8533 185.741 30.94 185.514 31C185.294 31.0533 185.064 31.08 184.824 31.08ZM181.984 26.94V25.74H185.714V26.94H181.984ZM190.24 25.54C190.667 25.54 191.047 25.6267 191.38 25.8C191.72 25.9667 191.987 26.2267 192.18 26.58C192.373 26.9267 192.47 27.3733 192.47 27.92V31H190.91V28.16C190.91 27.7267 190.813 27.4067 190.62 27.2C190.433 26.9933 190.167 26.89 189.82 26.89C189.573 26.89 189.35 26.9433 189.15 27.05C188.957 27.15 188.803 27.3067 188.69 27.52C188.583 27.7333 188.53 28.0067 188.53 28.34V31H186.97V23.58H188.53V27.11L188.18 26.66C188.373 26.3 188.65 26.0233 189.01 25.83C189.37 25.6367 189.78 25.54 190.24 25.54ZM193.884 31V25.62H195.444V31H193.884ZM194.664 24.87C194.377 24.87 194.144 24.7867 193.964 24.62C193.784 24.4533 193.694 24.2467 193.694 24C193.694 23.7533 193.784 23.5467 193.964 23.38C194.144 23.2133 194.377 23.13 194.664 23.13C194.951 23.13 195.184 23.21 195.364 23.37C195.544 23.5233 195.634 23.7233 195.634 23.97C195.634 24.23 195.544 24.4467 195.364 24.62C195.191 24.7867 194.957 24.87 194.664 24.87ZM200.162 25.54C200.589 25.54 200.969 25.6267 201.302 25.8C201.642 25.9667 201.909 26.2267 202.102 26.58C202.295 26.9267 202.392 27.3733 202.392 27.92V31H200.832V28.16C200.832 27.7267 200.735 27.4067 200.542 27.2C200.355 26.9933 200.089 26.89 199.742 26.89C199.495 26.89 199.272 26.9433 199.072 27.05C198.879 27.15 198.725 27.3067 198.612 27.52C198.505 27.7333 198.452 28.0067 198.452 28.34V31H196.892V25.62H198.382V27.11L198.102 26.66C198.295 26.3 198.572 26.0233 198.932 25.83C199.292 25.6367 199.702 25.54 200.162 25.54ZM206.375 33.02C205.868 33.02 205.378 32.9567 204.905 32.83C204.438 32.71 204.048 32.5267 203.735 32.28L204.355 31.16C204.582 31.3467 204.868 31.4933 205.215 31.6C205.568 31.7133 205.915 31.77 206.255 31.77C206.808 31.77 207.208 31.6467 207.455 31.4C207.708 31.1533 207.835 30.7867 207.835 30.3V29.49L207.935 28.14L207.915 26.78V25.62H209.395V30.1C209.395 31.1 209.135 31.8367 208.615 32.31C208.095 32.7833 207.348 33.02 206.375 33.02ZM206.135 30.74C205.635 30.74 205.182 30.6333 204.775 30.42C204.375 30.2 204.052 29.8967 203.805 29.51C203.565 29.1167 203.445 28.66 203.445 28.14C203.445 27.6133 203.565 27.1567 203.805 26.77C204.052 26.3767 204.375 26.0733 204.775 25.86C205.182 25.6467 205.635 25.54 206.135 25.54C206.588 25.54 206.988 25.6333 207.335 25.82C207.682 26 207.952 26.2833 208.145 26.67C208.338 27.05 208.435 27.54 208.435 28.14C208.435 28.7333 208.338 29.2233 208.145 29.61C207.952 29.99 207.682 30.2733 207.335 30.46C206.988 30.6467 206.588 30.74 206.135 30.74ZM206.445 29.46C206.718 29.46 206.962 29.4067 207.175 29.3C207.388 29.1867 207.555 29.03 207.675 28.83C207.795 28.63 207.855 28.4 207.855 28.14C207.855 27.8733 207.795 27.6433 207.675 27.45C207.555 27.25 207.388 27.0967 207.175 26.99C206.962 26.8767 206.718 26.82 206.445 26.82C206.172 26.82 205.928 26.8767 205.715 26.99C205.502 27.0967 205.332 27.25 205.205 27.45C205.085 27.6433 205.025 27.8733 205.025 28.14C205.025 28.4 205.085 28.63 205.205 28.83C205.332 29.03 205.502 29.1867 205.715 29.3C205.928 29.4067 206.172 29.46 206.445 29.46ZM212.657 31.08C212.197 31.08 211.754 31.0267 211.327 30.92C210.907 30.8067 210.574 30.6667 210.327 30.5L210.847 29.38C211.094 29.5333 211.384 29.66 211.717 29.76C212.057 29.8533 212.39 29.9 212.717 29.9C213.077 29.9 213.33 29.8567 213.477 29.77C213.63 29.6833 213.707 29.5633 213.707 29.41C213.707 29.2833 213.647 29.19 213.527 29.13C213.414 29.0633 213.26 29.0133 213.067 28.98C212.874 28.9467 212.66 28.9133 212.427 28.88C212.2 28.8467 211.97 28.8033 211.737 28.75C211.504 28.69 211.29 28.6033 211.097 28.49C210.904 28.3767 210.747 28.2233 210.627 28.03C210.514 27.8367 210.457 27.5867 210.457 27.28C210.457 26.94 210.554 26.64 210.747 26.38C210.947 26.12 211.234 25.9167 211.607 25.77C211.98 25.6167 212.427 25.54 212.947 25.54C213.314 25.54 213.687 25.58 214.067 25.66C214.447 25.74 214.764 25.8567 215.017 26.01L214.497 27.12C214.237 26.9667 213.974 26.8633 213.707 26.81C213.447 26.75 213.194 26.72 212.947 26.72C212.6 26.72 212.347 26.7667 212.187 26.86C212.027 26.9533 211.947 27.0733 211.947 27.22C211.947 27.3533 212.004 27.4533 212.117 27.52C212.237 27.5867 212.394 27.64 212.587 27.68C212.78 27.72 212.99 27.7567 213.217 27.79C213.45 27.8167 213.684 27.86 213.917 27.92C214.15 27.98 214.36 28.0667 214.547 28.18C214.74 28.2867 214.897 28.4367 215.017 28.63C215.137 28.8167 215.197 29.0633 215.197 29.37C215.197 29.7033 215.097 30 214.897 30.26C214.697 30.5133 214.407 30.7133 214.027 30.86C213.654 31.0067 213.197 31.08 212.657 31.08ZM221.191 31.08C220.558 31.08 220.065 30.92 219.711 30.6C219.358 30.2733 219.181 29.79 219.181 29.15V24.43H220.741V29.13C220.741 29.3567 220.801 29.5333 220.921 29.66C221.041 29.78 221.205 29.84 221.411 29.84C221.658 29.84 221.868 29.7733 222.041 29.64L222.461 30.74C222.301 30.8533 222.108 30.94 221.881 31C221.661 31.0533 221.431 31.08 221.191 31.08ZM218.351 26.94V25.74H222.081V26.94H218.351ZM226.607 25.54C227.034 25.54 227.414 25.6267 227.747 25.8C228.087 25.9667 228.354 26.2267 228.547 26.58C228.741 26.9267 228.837 27.3733 228.837 27.92V31H227.277V28.16C227.277 27.7267 227.181 27.4067 226.987 27.2C226.801 26.9933 226.534 26.89 226.187 26.89C225.941 26.89 225.717 26.9433 225.517 27.05C225.324 27.15 225.171 27.3067 225.057 27.52C224.951 27.7333 224.897 28.0067 224.897 28.34V31H223.337V23.58H224.897V27.11L224.547 26.66C224.741 26.3 225.017 26.0233 225.377 25.83C225.737 25.6367 226.147 25.54 226.607 25.54ZM233.551 31V29.95L233.451 29.72V27.84C233.451 27.5067 233.348 27.2467 233.141 27.06C232.941 26.8733 232.631 26.78 232.211 26.78C231.925 26.78 231.641 26.8267 231.361 26.92C231.088 27.0067 230.855 27.1267 230.661 27.28L230.101 26.19C230.395 25.9833 230.748 25.8233 231.161 25.71C231.575 25.5967 231.995 25.54 232.421 25.54C233.241 25.54 233.878 25.7333 234.331 26.12C234.785 26.5067 235.011 27.11 235.011 27.93V31H233.551ZM231.911 31.08C231.491 31.08 231.131 31.01 230.831 30.87C230.531 30.7233 230.301 30.5267 230.141 30.28C229.981 30.0333 229.901 29.7567 229.901 29.45C229.901 29.13 229.978 28.85 230.131 28.61C230.291 28.37 230.541 28.1833 230.881 28.05C231.221 27.91 231.665 27.84 232.211 27.84H233.641V28.75H232.381C232.015 28.75 231.761 28.81 231.621 28.93C231.488 29.05 231.421 29.2 231.421 29.38C231.421 29.58 231.498 29.74 231.651 29.86C231.811 29.9733 232.028 30.03 232.301 30.03C232.561 30.03 232.795 29.97 233.001 29.85C233.208 29.7233 233.358 29.54 233.451 29.3L233.691 30.02C233.578 30.3667 233.371 30.63 233.071 30.81C232.771 30.99 232.385 31.08 231.911 31.08ZM238.623 31.08C237.99 31.08 237.496 30.92 237.143 30.6C236.79 30.2733 236.613 29.79 236.613 29.15V24.43H238.173V29.13C238.173 29.3567 238.233 29.5333 238.353 29.66C238.473 29.78 238.636 29.84 238.843 29.84C239.09 29.84 239.3 29.7733 239.473 29.64L239.893 30.74C239.733 30.8533 239.54 30.94 239.313 31C239.093 31.0533 238.863 31.08 238.623 31.08ZM235.783 26.94V25.74H239.513V26.94H235.783ZM244.281 33.02C244.001 33.02 243.724 32.9767 243.451 32.89C243.178 32.8033 242.954 32.6833 242.781 32.53L243.351 31.42C243.471 31.5267 243.608 31.61 243.761 31.67C243.921 31.73 244.078 31.76 244.231 31.76C244.451 31.76 244.624 31.7067 244.751 31.6C244.884 31.5 245.004 31.33 245.111 31.09L245.391 30.43L245.511 30.26L247.441 25.62H248.941L246.511 31.33C246.338 31.7633 246.138 32.1033 245.911 32.35C245.691 32.5967 245.444 32.77 245.171 32.87C244.904 32.97 244.608 33.02 244.281 33.02ZM245.201 31.21L242.801 25.62H244.411L246.271 30.12L245.201 31.21ZM251.991 31.08C251.418 31.08 250.908 30.96 250.461 30.72C250.021 30.48 249.671 30.1533 249.411 29.74C249.158 29.32 249.031 28.8433 249.031 28.31C249.031 27.77 249.158 27.2933 249.411 26.88C249.671 26.46 250.021 26.1333 250.461 25.9C250.908 25.66 251.418 25.54 251.991 25.54C252.558 25.54 253.064 25.66 253.511 25.9C253.958 26.1333 254.308 26.4567 254.561 26.87C254.814 27.2833 254.941 27.7633 254.941 28.31C254.941 28.8433 254.814 29.32 254.561 29.74C254.308 30.1533 253.958 30.48 253.511 30.72C253.064 30.96 252.558 31.08 251.991 31.08ZM251.991 29.8C252.251 29.8 252.484 29.74 252.691 29.62C252.898 29.5 253.061 29.33 253.181 29.11C253.301 28.8833 253.361 28.6167 253.361 28.31C253.361 27.9967 253.301 27.73 253.181 27.51C253.061 27.29 252.898 27.12 252.691 27C252.484 26.88 252.251 26.82 251.991 26.82C251.731 26.82 251.498 26.88 251.291 27C251.084 27.12 250.918 27.29 250.791 27.51C250.671 27.73 250.611 27.9967 250.611 28.31C250.611 28.6167 250.671 28.8833 250.791 29.11C250.918 29.33 251.084 29.5 251.291 29.62C251.498 29.74 251.731 29.8 251.991 29.8ZM258.254 31.08C257.807 31.08 257.407 30.9933 257.054 30.82C256.707 30.6467 256.437 30.3833 256.244 30.03C256.05 29.67 255.954 29.2133 255.954 28.66V25.62H257.514V28.43C257.514 28.8767 257.607 29.2067 257.794 29.42C257.987 29.6267 258.257 29.73 258.604 29.73C258.844 29.73 259.057 29.68 259.244 29.58C259.43 29.4733 259.577 29.3133 259.684 29.1C259.79 28.88 259.844 28.6067 259.844 28.28V25.62H261.404V31H259.924V29.52L260.194 29.95C260.014 30.3233 259.747 30.6067 259.394 30.8C259.047 30.9867 258.667 31.08 258.254 31.08ZM268.951 25.54C269.378 25.54 269.758 25.6267 270.091 25.8C270.431 25.9667 270.698 26.2267 270.891 26.58C271.084 26.9267 271.181 27.3733 271.181 27.92V31H269.621V28.16C269.621 27.7267 269.524 27.4067 269.331 27.2C269.144 26.9933 268.878 26.89 268.531 26.89C268.284 26.89 268.061 26.9433 267.861 27.05C267.668 27.15 267.514 27.3067 267.401 27.52C267.294 27.7333 267.241 28.0067 267.241 28.34V31H265.681V25.62H267.171V27.11L266.891 26.66C267.084 26.3 267.361 26.0233 267.721 25.83C268.081 25.6367 268.491 25.54 268.951 25.54ZM275.304 31.08C274.691 31.08 274.151 30.96 273.684 30.72C273.224 30.48 272.867 30.1533 272.614 29.74C272.361 29.32 272.234 28.8433 272.234 28.31C272.234 27.77 272.357 27.2933 272.604 26.88C272.857 26.46 273.201 26.1333 273.634 25.9C274.067 25.66 274.557 25.54 275.104 25.54C275.631 25.54 276.104 25.6533 276.524 25.88C276.951 26.1 277.287 26.42 277.534 26.84C277.781 27.2533 277.904 27.75 277.904 28.33C277.904 28.39 277.901 28.46 277.894 28.54C277.887 28.6133 277.881 28.6833 277.874 28.75H273.504V27.84H277.054L276.454 28.11C276.454 27.83 276.397 27.5867 276.284 27.38C276.171 27.1733 276.014 27.0133 275.814 26.9C275.614 26.78 275.381 26.72 275.114 26.72C274.847 26.72 274.611 26.78 274.404 26.9C274.204 27.0133 274.047 27.1767 273.934 27.39C273.821 27.5967 273.764 27.8433 273.764 28.13V28.37C273.764 28.6633 273.827 28.9233 273.954 29.15C274.087 29.37 274.271 29.54 274.504 29.66C274.744 29.7733 275.024 29.83 275.344 29.83C275.631 29.83 275.881 29.7867 276.094 29.7C276.314 29.6133 276.514 29.4833 276.694 29.31L277.524 30.21C277.277 30.49 276.967 30.7067 276.594 30.86C276.221 31.0067 275.791 31.08 275.304 31.08ZM281.613 31.08C280.999 31.08 280.459 30.96 279.993 30.72C279.533 30.48 279.176 30.1533 278.923 29.74C278.669 29.32 278.543 28.8433 278.543 28.31C278.543 27.77 278.666 27.2933 278.913 26.88C279.166 26.46 279.509 26.1333 279.943 25.9C280.376 25.66 280.866 25.54 281.413 25.54C281.939 25.54 282.413 25.6533 282.833 25.88C283.259 26.1 283.596 26.42 283.843 26.84C284.089 27.2533 284.213 27.75 284.213 28.33C284.213 28.39 284.209 28.46 284.203 28.54C284.196 28.6133 284.189 28.6833 284.183 28.75H279.813V27.84H283.363L282.763 28.11C282.763 27.83 282.706 27.5867 282.593 27.38C282.479 27.1733 282.323 27.0133 282.123 26.9C281.923 26.78 281.689 26.72 281.423 26.72C281.156 26.72 280.919 26.78 280.713 26.9C280.513 27.0133 280.356 27.1767 280.243 27.39C280.129 27.5967 280.073 27.8433 280.073 28.13V28.37C280.073 28.6633 280.136 28.9233 280.263 29.15C280.396 29.37 280.579 29.54 280.813 29.66C281.053 29.7733 281.333 29.83 281.653 29.83C281.939 29.83 282.189 29.7867 282.403 29.7C282.623 29.6133 282.823 29.4833 283.003 29.31L283.833 30.21C283.586 30.49 283.276 30.7067 282.903 30.86C282.529 31.0067 282.099 31.08 281.613 31.08ZM287.561 31.08C287.055 31.08 286.598 30.9667 286.191 30.74C285.785 30.5067 285.461 30.1833 285.221 29.77C284.988 29.3567 284.871 28.87 284.871 28.31C284.871 27.7433 284.988 27.2533 285.221 26.84C285.461 26.4267 285.785 26.1067 286.191 25.88C286.598 25.6533 287.055 25.54 287.561 25.54C288.015 25.54 288.411 25.64 288.751 25.84C289.091 26.04 289.355 26.3433 289.541 26.75C289.728 27.1567 289.821 27.6767 289.821 28.31C289.821 28.9367 289.731 29.4567 289.551 29.87C289.371 30.2767 289.111 30.58 288.771 30.78C288.438 30.98 288.035 31.08 287.561 31.08ZM287.831 29.8C288.085 29.8 288.315 29.74 288.521 29.62C288.728 29.5 288.891 29.33 289.011 29.11C289.138 28.8833 289.201 28.6167 289.201 28.31C289.201 27.9967 289.138 27.73 289.011 27.51C288.891 27.29 288.728 27.12 288.521 27C288.315 26.88 288.085 26.82 287.831 26.82C287.571 26.82 287.338 26.88 287.131 27C286.925 27.12 286.758 27.29 286.631 27.51C286.511 27.73 286.451 27.9967 286.451 28.31C286.451 28.6167 286.511 28.8833 286.631 29.11C286.758 29.33 286.925 29.5 287.131 29.62C287.338 29.74 287.571 29.8 287.831 29.8ZM289.241 31V29.9L289.271 28.3L289.171 26.71V23.58H290.731V31H289.241Z" fill="black"/>
<path d="M290 53L290.707 52.2929L291.414 53L290.707 53.7071L290 53ZM278 54C277.448 54 277 53.5523 277 53C277 52.4477 277.448 52 278 52V54ZM286.707 48.2929L290.707 52.2929L289.293 53.7071L285.293 49.7071L286.707 48.2929ZM290.707 53.7071L286.707 57.7071L285.293 56.2929L289.293 52.2929L290.707 53.7071ZM290 54H278V52H290V54Z" fill="#58AF98"/>
<path d="M245.23 56.12C244.677 56.12 244.163 56.03 243.69 55.85C243.223 55.67 242.817 55.4167 242.47 55.09C242.13 54.7633 241.863 54.38 241.67 53.94C241.483 53.5 241.39 53.02 241.39 52.5C241.39 51.98 241.483 51.5 241.67 51.06C241.863 50.62 242.133 50.2367 242.48 49.91C242.827 49.5833 243.233 49.33 243.7 49.15C244.167 48.97 244.673 48.88 245.22 48.88C245.773 48.88 246.28 48.97 246.74 49.15C247.207 49.33 247.61 49.5833 247.95 49.91C248.297 50.2367 248.567 50.62 248.76 51.06C248.953 51.4933 249.05 51.9733 249.05 52.5C249.05 53.02 248.953 53.5033 248.76 53.95C248.567 54.39 248.297 54.7733 247.95 55.1C247.61 55.42 247.207 55.67 246.74 55.85C246.28 56.03 245.777 56.12 245.23 56.12ZM245.22 54.74C245.533 54.74 245.82 54.6867 246.08 54.58C246.347 54.4733 246.58 54.32 246.78 54.12C246.98 53.92 247.133 53.6833 247.24 53.41C247.353 53.1367 247.41 52.8333 247.41 52.5C247.41 52.1667 247.353 51.8633 247.24 51.59C247.133 51.3167 246.98 51.08 246.78 50.88C246.587 50.68 246.357 50.5267 246.09 50.42C245.823 50.3133 245.533 50.26 245.22 50.26C244.907 50.26 244.617 50.3133 244.35 50.42C244.09 50.5267 243.86 50.68 243.66 50.88C243.46 51.08 243.303 51.3167 243.19 51.59C243.083 51.8633 243.03 52.1667 243.03 52.5C243.03 52.8267 243.083 53.13 243.19 53.41C243.303 53.6833 243.457 53.92 243.65 54.12C243.85 54.32 244.083 54.4733 244.35 54.58C244.617 54.6867 244.907 54.74 245.22 54.74ZM250.158 56V50.62H251.648V52.14L251.438 51.7C251.598 51.32 251.854 51.0333 252.208 50.84C252.561 50.64 252.991 50.54 253.498 50.54V51.98C253.431 51.9733 253.371 51.97 253.318 51.97C253.264 51.9633 253.208 51.96 253.148 51.96C252.721 51.96 252.374 52.0833 252.108 52.33C251.848 52.57 251.718 52.9467 251.718 53.46V56H250.158ZM256.696 56.08C256.189 56.08 255.733 55.9667 255.326 55.74C254.919 55.5067 254.596 55.1833 254.356 54.77C254.123 54.3567 254.006 53.87 254.006 53.31C254.006 52.7433 254.123 52.2533 254.356 51.84C254.596 51.4267 254.919 51.1067 255.326 50.88C255.733 50.6533 256.189 50.54 256.696 50.54C257.149 50.54 257.546 50.64 257.886 50.84C258.226 51.04 258.489 51.3433 258.676 51.75C258.863 52.1567 258.956 52.6767 258.956 53.31C258.956 53.9367 258.866 54.4567 258.686 54.87C258.506 55.2767 258.246 55.58 257.906 55.78C257.573 55.98 257.169 56.08 256.696 56.08ZM256.966 54.8C257.219 54.8 257.449 54.74 257.656 54.62C257.863 54.5 258.026 54.33 258.146 54.11C258.273 53.8833 258.336 53.6167 258.336 53.31C258.336 52.9967 258.273 52.73 258.146 52.51C258.026 52.29 257.863 52.12 257.656 52C257.449 51.88 257.219 51.82 256.966 51.82C256.706 51.82 256.473 51.88 256.266 52C256.059 52.12 255.893 52.29 255.766 52.51C255.646 52.73 255.586 52.9967 255.586 53.31C255.586 53.6167 255.646 53.8833 255.766 54.11C255.893 54.33 256.059 54.5 256.266 54.62C256.473 54.74 256.706 54.8 256.966 54.8ZM258.376 56V54.9L258.406 53.3L258.306 51.71V48.58H259.866V56H258.376ZM263.98 56.08C263.367 56.08 262.827 55.96 262.36 55.72C261.9 55.48 261.543 55.1533 261.29 54.74C261.037 54.32 260.91 53.8433 260.91 53.31C260.91 52.77 261.033 52.2933 261.28 51.88C261.533 51.46 261.877 51.1333 262.31 50.9C262.743 50.66 263.233 50.54 263.78 50.54C264.307 50.54 264.78 50.6533 265.2 50.88C265.627 51.1 265.963 51.42 266.21 51.84C266.457 52.2533 266.58 52.75 266.58 53.33C266.58 53.39 266.577 53.46 266.57 53.54C266.563 53.6133 266.557 53.6833 266.55 53.75H262.18V52.84H265.73L265.13 53.11C265.13 52.83 265.073 52.5867 264.96 52.38C264.847 52.1733 264.69 52.0133 264.49 51.9C264.29 51.78 264.057 51.72 263.79 51.72C263.523 51.72 263.287 51.78 263.08 51.9C262.88 52.0133 262.723 52.1767 262.61 52.39C262.497 52.5967 262.44 52.8433 262.44 53.13V53.37C262.44 53.6633 262.503 53.9233 262.63 54.15C262.763 54.37 262.947 54.54 263.18 54.66C263.42 54.7733 263.7 54.83 264.02 54.83C264.307 54.83 264.557 54.7867 264.77 54.7C264.99 54.6133 265.19 54.4833 265.37 54.31L266.2 55.21C265.953 55.49 265.643 55.7067 265.27 55.86C264.897 56.0067 264.467 56.08 263.98 56.08ZM267.618 56V50.62H269.108V52.14L268.898 51.7C269.058 51.32 269.315 51.0333 269.668 50.84C270.022 50.64 270.452 50.54 270.958 50.54V51.98C270.892 51.9733 270.832 51.97 270.778 51.97C270.725 51.9633 270.668 51.96 270.608 51.96C270.182 51.96 269.835 52.0833 269.568 52.33C269.308 52.57 269.178 52.9467 269.178 53.46V56H267.618Z" fill="#58AF98"/>
</svg>
